REM DIRINDEX 1\2,1\3,1\4,1\5,1\6
REM DIRNAME cjc030,folder01,folder02,folder03,folder04,folder05
TITLE ""
FILE "Disc5Track27.mp3" MP3
  TRACK 01 AUDIO
    TITLE "3:cjc030_08994"
    INDEX 01 00:00:00
  TRACK 02 AUDIO
    TITLE "0:"
    INDEX 01 00:01:07
  TRACK 03 AUDIO
    TITLE "4:cjc030_08995"
    INDEX 01 00:01:15
  TRACK 04 AUDIO
    TITLE "0:"
    INDEX 01 00:03:25
  TRACK 05 AUDIO
    TITLE "5:cjc030_08996"
    INDEX 01 00:03:35
  TRACK 06 AUDIO
    TITLE "0:"
    INDEX 01 00:04:46
  TRACK 07 AUDIO
    TITLE "6:cjc030_08997"
    INDEX 01 00:04:62
  TRACK 08 AUDIO
    TITLE "0:"
    INDEX 01 00:08:09
  TRACK 09 AUDIO
    TITLE "3:cjc030_08998"
    INDEX 01 00:08:62
  TRACK 10 AUDIO
    TITLE "0:"
    INDEX 01 00:10:04
  TRACK 11 AUDIO
    TITLE "4:cjc030_08999"
    INDEX 01 00:10:12
  TRACK 12 AUDIO
    TITLE "0:"
    INDEX 01 00:12:32
  TRACK 13 AUDIO
    TITLE "5:cjc030_09000"
    INDEX 01 00:12:42
  TRACK 14 AUDIO
    TITLE "0:"
    INDEX 01 00:13:59
  TRACK 15 AUDIO
    TITLE "3:cjc030_09001"
    INDEX 01 00:14:35
  TRACK 16 AUDIO
    TITLE "0:"
    INDEX 01 00:15:44
  TRACK 17 AUDIO
    TITLE "4:cjc030_09002"
    INDEX 01 00:15:52
  TRACK 18 AUDIO
    TITLE "0:"
    INDEX 01 00:17:72
  TRACK 19 AUDIO
    TITLE "5:cjc030_09003"
    INDEX 01 00:18:07
  TRACK 20 AUDIO
    TITLE "0:"
    INDEX 01 00:19:15
  TRACK 21 AUDIO
    TITLE "6:cjc030_09004"
    INDEX 01 00:19:30
  TRACK 22 AUDIO
    TITLE "0:"
    INDEX 01 00:21:00
  TRACK 23 AUDIO
    TITLE "3:cjc030_09005"
    INDEX 01 00:21:51
  TRACK 24 AUDIO
    TITLE "0:"
    INDEX 01 00:22:62
  TRACK 25 AUDIO
    TITLE "4:cjc030_09006"
    INDEX 01 00:22:68
  TRACK 26 AUDIO
    TITLE "0:"
    INDEX 01 00:24:24
  TRACK 27 AUDIO
    TITLE "5:cjc030_09007"
    INDEX 01 00:24:33
  TRACK 28 AUDIO
    TITLE "0:"
    INDEX 01 00:25:41
  TRACK 29 AUDIO
    TITLE "3:cjc030_09008"
    INDEX 01 00:26:20
  TRACK 30 AUDIO
    TITLE "0:"
    INDEX 01 00:27:45
  TRACK 31 AUDIO
    TITLE "4:cjc030_09009"
    INDEX 01 00:27:53
  TRACK 32 AUDIO
    TITLE "0:"
    INDEX 01 00:29:62
  TRACK 33 AUDIO
    TITLE "5:cjc030_09010"
    INDEX 01 00:29:68
  TRACK 34 AUDIO
    TITLE "0:"
    INDEX 01 00:31:18
  TRACK 35 AUDIO
    TITLE "6:cjc030_09011"
    INDEX 01 00:31:33
  TRACK 36 AUDIO
    TITLE "0:"
    INDEX 01 00:36:70
  TRACK 37 AUDIO
    TITLE "3:cjc030_09012"
    INDEX 01 00:37:46
  TRACK 38 AUDIO
    TITLE "0:"
    INDEX 01 00:38:49
  TRACK 39 AUDIO
    TITLE "4:cjc030_09013"
    INDEX 01 00:38:57
  TRACK 40 AUDIO
    TITLE "0:"
    INDEX 01 00:40:36
  TRACK 41 AUDIO
    TITLE "5:cjc030_09014"
    INDEX 01 00:40:46
  TRACK 42 AUDIO
    TITLE "0:"
    INDEX 01 00:41:49
  TRACK 43 AUDIO
    TITLE "6:cjc030_09015"
    INDEX 01 00:41:63
  TRACK 44 AUDIO
    TITLE "0:"
    INDEX 01 00:45:65
  TRACK 45 AUDIO
    TITLE "3:cjc030_09016"
    INDEX 01 00:46:41
  TRACK 46 AUDIO
    TITLE "0:"
    INDEX 01 00:48:00
  TRACK 47 AUDIO
    TITLE "4:cjc030_09017"
    INDEX 01 00:48:08
  TRACK 48 AUDIO
    TITLE "0:"
    INDEX 01 00:50:37
  TRACK 49 AUDIO
    TITLE "5:cjc030_09018"
    INDEX 01 00:50:44
  TRACK 50 AUDIO
    TITLE "0:"
    INDEX 01 00:52:04
  TRACK 51 AUDIO
    TITLE "6:cjc030_09019"
    INDEX 01 00:52:20
  TRACK 52 AUDIO
    TITLE "0:"
    INDEX 01 00:56:06
  TRACK 53 AUDIO
    TITLE "3:cjc030_09020"
    INDEX 01 00:56:57
  TRACK 54 AUDIO
    TITLE "0:"
    INDEX 01 00:57:66
  TRACK 55 AUDIO
    TITLE "4:cjc030_09021"
    INDEX 01 00:58:01
  TRACK 56 AUDIO
    TITLE "0:"
    INDEX 01 00:59:04
  TRACK 57 AUDIO
    TITLE "5:cjc030_09022"
    INDEX 01 00:59:14
  TRACK 58 AUDIO
    TITLE "0:"
    INDEX 01 01:00:23
  TRACK 59 AUDIO
    TITLE "6:cjc030_09023"
    INDEX 01 01:00:39
  TRACK 60 AUDIO
    TITLE "0:"
    INDEX 01 01:04:23
